<?xml version="1.0" encoding="UTF-8" standalone="no"?>
<!DOCTYPE svg PUBLIC "-//W3C//DTD SVG 1.1//EN" "http://www.w3.org/Graphics/SVG/1.1/DTD/svg11.dtd">
<svg xmlns="http://www.w3.org/2000/svg" width="48" height="48">
  <defs>
    <radialGradient id="a" cx="15.116" cy="63.965" r="12.289" gradientTransform="scale(1.644 .60828)" gradientUnits="userSpaceOnUse">
      <stop offset="0"/>
      <stop offset="1" stop-opacity="0"/>
    </radialGradient>
    <radialGradient id="c" cx="11.827" cy="10.476" r="32.665" gradientTransform="scale(1.1795 .84779)" gradientUnits="userSpaceOnUse">
      <stop offset="0" stop-color="#fff"/>
      <stop offset="1" stop-color="#fff" stop-opacity="0"/>
    </radialGradient>
    <radialGradient id="e" cx="15.601" cy="12.142" r="43.527" gradientTransform="scale(.99999 1)" gradientUnits="userSpaceOnUse">
      <stop offset="0" stop-color="#fff"/>
      <stop offset="1" stop-color="#fff" stop-opacity=".16495"/>
    </radialGradient>
    <radialGradient id="b" cx="18.248" cy="15.716" r="29.993" gradientTransform="scale(.99999 1)" gradientUnits="userSpaceOnUse">
      <stop offset="0" stop-color="#d3e9ff"/>
      <stop offset=".15517" stop-color="#d3e9ff"/>
      <stop offset=".75" stop-color="#4074ae"/>
      <stop offset="1" stop-color="#36486c"/>
    </radialGradient>
    <radialGradient id="d" cx="18.634" cy="17.486" r="40.693" fx="18.934" fy="17.81" gradientTransform="matrix(1.0185 0 0 .94748 -.080952 .030883)" gradientUnits="userSpaceOnUse">
      <stop offset="0" stop-color="#fff"/>
      <stop offset=".37931" stop-color="#fefefe"/>
      <stop offset="1" stop-color="#1d1d1d"/>
    </radialGradient>
  </defs>
  <path fill="url(#a)" d="M45.053 38.909a20.203 7.4751 0 1 1-40.406 0 20.203 7.4751 0 1 1 40.406 0z" transform="matrix(1 0 0 1.2432 0 -10.272)"/>
  <path fill="url(#b)" stroke="#39396c" d="M43.96 23.485c0 10.71-8.682 19.392-19.39 19.392-10.71 0-19.391-8.682-19.391-19.392-.0003-10.709 8.681-19.39 19.391-19.39 10.708.0002 19.39 8.681 19.39 19.39z"/>
  <path fill="url(#c)" d="M30.709 15.271a12.93 9.2934 0 1 1-25.86 0 12.93 9.2934 0 1 1 25.86 0z" opacity=".42" transform="matrix(.83594 0 0 1 9.8869 0)"/>
  <path fill-opacity=".71" d="m18.519 14.641.429-.647-.643-.484.214 1.131m-.356 13.336-.572-1.132-1.071-.242-.572-1.535-1.428.161-1.213-.888-1.286 1.131v.178c-.389-.112-.867-.127-1.214-.34l-.286-.808v-.889l-.8564.08c.0715-.566.1425-1.131.2145-1.697h-.5004l-.4993.647-.5003.242-.7143-.403-.0715-.89.1429-.97 1.0716-.807h.8567l.1425-.486 1.071.242.786.971.143-1.618 1.357-1.131.499-1.212 1-.404.571-.808 1.285-.244.644-.969h-1.929l1.214-.566h.857l1.214-.405.143-.483-.429-.405-.5-.162.143-.484-.357-.728-.857.323.143-.646-.999-.566-.786 1.373.071.485-.785.324-.5 1.051-.214-.97-1.357-.566-.215-.727 1.786-1.0516.786-.7272.071-.8888-.428-.2427-.572-.0811-.356.8893s-.598.117-.751.155c-1.961 1.8071-5.9232 5.7081-6.8437 13.071.0365.171.6673 1.161.6673 1.161l1.4995.889 1.4995.404.6434.809.999.727.571-.08.429.193v.13l-.571 1.535-.429.647.143.324-.357 1.211 1.285 2.345 1.285 1.132.572.807-.072 1.698.429.969-.429 1.86s-.033-.012.021.174c.056.186 2.288 1.426 2.43 1.32.142-.107.263-.201.263-.201l-.143-.403.571-.566.215-.566.928-.325.714-1.778-.214-.484.499-.727 1.072-.243.571-1.294-.143-1.615.857-1.213.143-1.212c-1.172-.582-2.335-1.18-3.499-1.779m-3.427-18.994-.358.8888h.715l.357-.8083c.308-.2177.615-.4369.928-.6466l.715.2428c.475.3233.951.6466 1.428.9694l.714-.6461-.786-.3233-.357-.7277-1.357-.1616-.071-.4044-.643.1621-.286.5656-.357-.7276-.142.3233.071.8083-.571.4853m11.782-2.9903L24.66 5.265l-2.141.2423-2.643.7271-.5.4854 1.643 1.1311v.6466l-.643.6466.857 1.6987.57-.324.716-1.1316c1.103-.341 2.092-.7276 3.141-1.2126l.857-2.182m-.785 3.3136-.072.4845.501.3231.855-.5654-.427-.485-.572.3238-.285-.081m2.714 3.4766-.286-.729-.501.163.144.888.643-.322m14.969 7.799-.535.606c-.328-.386-.696-.711-1.07-1.051l-.822.121-.75-.848v1.049l.643.487.428.484.571-.646c.144.269.286.539.429.808v.808l-.643.727-1.179.809-.892.89-.571-.648.285-.727-.57-.647-.965-2.061-.821-.928-.215.241.323 1.173.606.687c.346.999.689 1.955 1.144 2.91.705 0 1.369-.075 2.07-.163v.566l-.857 2.102-.786.888-.642 1.376v2.262l.215.89-.357.403-.787.486-.821.686.679.768-.929.81.179.523-1.393 1.578h-.928l-.786.485h-.5v-.647l-.213-1.295c-.277-.811-.564-1.617-.857-2.423 0-.595.035-1.184.071-1.779l.358-.807-.501-.971.036-1.334-.679-.767.34-1.111-.553-.627h-.965l-.321-.364-.964.607-.393-.446-.893.768c-.606-.687-1.213-1.374-1.821-2.061l-.713-1.698.642-.969-.356-.404.784-1.86c.645-.802 1.318-1.571 2-2.343l1.214-.324 1.357-.161.928.243 1.321 1.332.465-.524.641-.081 1.215.404h.929l.642-.566.286-.404-.644-.404-1.071-.08c-.298-.413-.574-.847-.927-1.213l-.358.161-.143 1.052-.643-.728-.141-.809-.714-.564h-.287l.715.807-.286.728-.571.161.357-.727-.644-.323-.57-.646-1.072.241-.142.323-.643.405-.357.889-.892.444-.394-.444h-.427v-1.455l.928-.486h.714l-.144-.565-.57-.566.963-.202.536-.606.428-.728h.786l-.215-.565.501-.323v.647l1.071.241 1.07-.888.072-.405.928-.646c-.336.042-.672.072-1 .162v-.728l.357-.8087h-.357l-.784.7272-.215.4045.215.566-.358.969-.571-.323-.499-.565-.786.565-.286-1.293 1.356-.8886v-.4854l.858-.5655 1.356-.3238.929.3238 1.713.3233-.427.4845h-.929l.929.9697.713-.8076.217-.3554s2.738 2.454 4.303 5.138c1.565 2.685 2.299 5.85 2.299 6.493zm-26.11-13.62.357-.3228.715-.1617c.489-.238.98-.3982 1.499-.5661l-.285-.485-.922.1324-.435.4342-.718.1041-.639.2998-.31.1501-.19.2538.928.1612m-.714 2.6674.714.4848h.572v-.5654l-.714-.3233-.572.4039m12.14 2.9908-.143.97.785-.162.571-.565-.5-.485c-.167-.447-.36-.865-.57-1.293h-.428v.484l.285.323v.728"/>
  <path fill="url(#d)" d="m18.317 14.439.429-.647-.643-.484.214 1.131m-3.784-5.6579-.358.8888h.715l.357-.8083c.308-.2178.615-.4369.928-.6466l.715.2428c.475.3233.951.6466 1.427.9694l.715-.6461-.786-.3233-.357-.7277-1.357-.1617-.071-.4043-.643.1621-.286.5656-.357-.7276-.142.3233.071.8083-.571.4853m3.427 18.994-.571-1.132-1.071-.242-.572-1.535-1.428.161-1.213-.888-1.286 1.131v.178c-.389-.112-.867-.127-1.214-.34l-.286-.808v-.889l-.8564.08c.0715-.566.1424-1.131.2144-1.697h-.5003l-.4993.647-.5003.241-.7143-.402-.0715-.89.1429-.97 1.0716-.808h.8567l.1424-.485 1.0711.242.786.971.143-1.618 1.357-1.131.499-1.212 1-.404.571-.808 1.285-.244.644-.969h-1.929l1.214-.566h.857l1.214-.405.143-.483-.429-.405-.5-.162.143-.485-.357-.727-.857.323.143-.646-1-.5665-.785 1.3735.071.485-.785.324-.5 1.051-.214-.97-1.357-.566-.215-.727 1.786-1.0516.785-.7272.072-.8888-.428-.2428-.572-.081-.356.8893s-.598.117-.751.1549c-1.961 1.8072-5.9232 5.7082-6.8437 13.071.0365.171.6672 1.161.6672 1.161l1.4995.889 1.4995.404.6433.809.9992.727.571-.08.429.193v.13l-.571 1.535-.429.647.143.324-.357 1.211 1.285 2.345 1.285 1.132.572.807-.072 1.698.429.969-.429 1.86s-.033-.012.021.174c.056.186 2.288 1.426 2.43 1.32.142-.107.263-.201.263-.201l-.143-.403.571-.566.215-.566.928-.325.714-1.778-.214-.484.499-.727 1.072-.243.571-1.294-.143-1.615.857-1.213.143-1.212c-1.172-.582-2.335-1.18-3.499-1.779m8.355-21.984-1.857-.7276-2.141.2422-2.643.7272-.5.4854 1.643 1.1311v.6466l-.643.6466.857 1.6987.57-.324.716-1.1316c1.103-.3411 2.092-.7276 3.141-1.2126l.857-2.1821m-.785 3.3137-.072.4845.501.3233.855-.5656-.427-.485-.572.3238-.285-.081m17.683 11.276-.535.606c-.328-.386-.696-.711-1.07-1.051l-.822.121-.75-.848v1.049l.643.487.428.484.571-.646c.144.269.286.539.429.808v.808l-.643.727-1.179.809-.892.89-.571-.648.285-.727-.57-.647-.965-2.061-.821-.928-.215.241.323 1.173.606.687c.346.999.689 1.955 1.144 2.91.705 0 1.369-.075 2.07-.163v.566l-.857 2.102-.786.888-.642 1.376v2.262l.215.89-.357.403-.787.486-.821.686.679.768-.929.81.179.523-1.393 1.578h-.928l-.786.485h-.5v-.647l-.213-1.295c-.277-.811-.564-1.617-.857-2.423 0-.595.035-1.184.071-1.779l.358-.807-.501-.971.036-1.334-.679-.767.34-1.111-.553-.627h-.965l-.321-.364-.964.607-.393-.446-.893.768c-.606-.687-1.213-1.374-1.821-2.061l-.713-1.698.642-.969-.357-.404.785-1.86c.645-.802 1.318-1.571 2-2.343l1.214-.324 1.357-.161.928.243 1.321 1.332.465-.524.641-.081 1.215.404h.928l.643-.566.286-.404-.644-.404-1.071-.08c-.298-.413-.574-.847-.927-1.213l-.358.161-.143 1.052-.643-.728-.141-.809-.714-.564h-.287l.715.807-.286.728-.571.161.357-.727-.644-.323-.57-.646-1.072.241-.142.323-.643.405-.357.889-.892.444-.394-.444h-.427v-1.455l.928-.486h.714l-.144-.565-.57-.566.963-.202.536-.606.428-.728h.786l-.215-.565.501-.323v.646l1.071.242 1.07-.888.072-.405.928-.646c-.336.042-.672.072-1 .162v-.7284l.357-.8083h-.357l-.784.7272-.215.4045.215.566-.358.969-.571-.323-.499-.565-.786.565-.286-1.293 1.356-.8886v-.4854l.858-.5655 1.356-.3238.929.3238 1.713.3233-.427.4845h-.929l.929.9699.713-.8078.217-.3555s2.738 2.4541 4.303 5.1381c1.565 2.685 2.299 5.85 2.299 6.493zm-26.11-13.62.357-.3228.715-.1617c.489-.2379.98-.3981 1.499-.566l-.285-.485-.922.1324-.435.4341-.719.1042-.638.2998-.31.1501-.19.2537.928.1612m-.714 2.6675.714.485h.572v-.5656l-.714-.3233-.572.4039m12.14 2.9908-.143.97.785-.162.571-.565-.5-.485c-.167-.447-.36-.865-.57-1.293h-.428v.484l.285.323v.728m-.285.163-.286-.729-.501.163.144.888.643-.322"/>
  <path fill="none" stroke="url(#e)" d="M42.975 23.486c0 10.165-8.241 18.406-18.406 18.406S6.163 33.651 6.163 23.486C6.1634 13.32 14.404 5.08 24.569 5.08c10.165-.0001 18.406 8.24 18.406 18.406z"/>
</svg>